<svg xmlns="http://www.w3.org/2000/svg" viewBox="0 0 500 373">
  <defs><style>.cls-1{fill:#F2EBFB;}.cls-2{fill:#FBFAFF;}.cls-3{fill:#F2EBFB;}.cls-4,.cls-8{fill:#FBFAFF;}.cls-5{fill:#FBFAFF;}.cls-6{fill:#F2EBFB;}.cls-7,.cls-9{fill:#F77F00;}.cls-8{opacity:0.8;}.cls-9{opacity:0.4;}.cls-10{font-size:71.41px;font-family:SourceSansPro-Semibold, Source Sans Pro;font-weight:600;}</style></defs>
  <g id="Background_Complete" data-name="Background Complete">
    <rect class="cls-1" y="327.45" width="500" height="0.25"/>
    <rect class="cls-1" x="90.46" y="336.97" width="24.87" height="0.25"/>
    <rect class="cls-1" x="152.33" y="334.26" width="27.5" height="0.25"/>
    <rect class="cls-1" x="47.67" y="346.26" width="58.11" height="0.25"/>
    <rect class="cls-1" x="428.3" y="344.58" width="21.6" height="0.25"/>
    <rect class="cls-1" x="214.79" y="336.19" width="27.93" height="0.25"/>
    <rect class="cls-1" x="300.67" y="340.35" width="70.22" height="0.25"/>
    <path class="cls-1" d="M237,282.85H43.91a5.71,5.71,0,0,1-5.7-5.71V5.71A5.71,5.71,0,0,1,43.91,0H237a5.71,5.71,0,0,1,5.71,5.71V277.14A5.71,5.71,0,0,1,237,282.85ZM43.91.25a5.46,5.46,0,0,0-5.45,5.46V277.14a5.46,5.46,0,0,0,5.45,5.46H237a5.47,5.47,0,0,0,5.46-5.46V5.71A5.47,5.47,0,0,0,237,.25Z"/>
    <path class="cls-1" d="M453.31,282.85H260.21a5.72,5.72,0,0,1-5.71-5.71V5.71A5.72,5.72,0,0,1,260.21,0h193.1A5.71,5.71,0,0,1,459,5.71V277.14A5.71,5.71,0,0,1,453.31,282.85ZM260.21.25a5.47,5.47,0,0,0-5.46,5.46V277.14a5.47,5.47,0,0,0,5.46,5.46h193.1a5.47,5.47,0,0,0,5.46-5.46V5.71A5.47,5.47,0,0,0,453.31.25Z"/>
    <rect class="cls-1" x="23.25" y="9.67" width="306.37" height="195.29" rx="8.6"/>
    <rect class="cls-2" x="23.25" y="19.55" width="306.37" height="157.42"/>
    <path class="cls-3" d="M231.27,79.19a7.37,7.37,0,0,1,7.35-7.35h229a7.37,7.37,0,0,1,7.35,7.35v23.66H231.27Z"/>
    <circle class="cls-4" cx="290.71" cy="87.35" r="5.56"/>
    <circle class="cls-4" cx="271.01" cy="87.35" r="5.56"/>
    <circle class="cls-4" cx="251.32" cy="87.35" r="5.56"/>
    <path class="cls-5" d="M467.59,230.25h-229a7.37,7.37,0,0,1-7.35-7.35v-120H474.94V222.9A7.37,7.37,0,0,1,467.59,230.25Z"/>
    <path class="cls-6" d="M198.55,120.12a7.37,7.37,0,0,1,7.35-7.35h229a7.37,7.37,0,0,1,7.35,7.35v23.66H198.55Z"/>
    <circle class="cls-3" cx="257.98" cy="128.28" r="5.56"/>
    <circle class="cls-3" cx="238.28" cy="128.28" r="5.56"/>
    <circle class="cls-3" cx="218.59" cy="128.28" r="5.56"/>
    <path class="cls-2" d="M434.86,271.18h-229a7.37,7.37,0,0,1-7.35-7.35v-120H442.21v120A7.37,7.37,0,0,1,434.86,271.18Z"/>
    <path class="cls-2" d="M165.82,161.05a7.37,7.37,0,0,1,7.35-7.35h229a7.37,7.37,0,0,1,7.35,7.35v23.66H165.82Z"/>
    <circle class="cls-6" cx="225.25" cy="169.21" r="5.56"/>
    <circle class="cls-6" cx="205.55" cy="169.21" r="5.56"/>
    <circle class="cls-6" cx="185.86" cy="169.21" r="5.56"/>
    <path class="cls-3" d="M402.13,312.11h-229a7.37,7.37,0,0,1-7.35-7.35v-120H409.48v120A7.37,7.37,0,0,1,402.13,312.11Z"/></g><g id="Shadow"><ellipse id="_Path_" data-name="&lt;Path&gt;" class="cls-5" cx="250" cy="361.29" rx="193.89" ry="11.32"/></g><g id="About_Us_Page" data-name="About Us Page">
    <rect class="cls-7" x="182.33" y="27.55" width="8.83" height="1"/>
    <rect class="cls-7" x="150.17" y="27.55" width="21.67" height="1"/>
    <path class="cls-7" d="M90.33,31H409.67a12,12,0,0,1,12,12V318.77a0,0,0,0,1,0,0H78.33a0,0,0,0,1,0,0V43A12,12,0,0,1,90.33,31Z"/>
    <rect class="cls-8" x="78.33" y="49.05" width="343.33" height="265.06"/>
    <rect class="cls-9" x="78.33" y="49.05" width="343.33" height="58.27"/>
    <rect class="cls-9" x="400.25" y="54.62" width="14.33" height="14.33"/>
    <rect class="cls-9" x="378.99" y="54.62" width="14.33" height="14.33"/>
    <rect class="cls-9" x="357.73" y="54.62" width="14.33" height="14.33"/>
    <rect class="cls-9" x="128.96" y="304.55" width="14.33" height="1.44"/>
    <rect class="cls-9" x="107.7" y="304.55" width="14.33" height="1.44"/>
    <rect class="cls-9" x="86.44" y="304.55" width="14.33" height="1.44"/>
    <path class="cls-4" d="M231.1,82.25h-4.37l-.61,2.06h-3.93l4.69-12.47h4.2l4.68,12.47h-4Zm-.79-2.7-1.38-4.48-1.36,4.48Z"/>
    <path class="cls-4" d="M236.77,71.84h3.5v4.32a3.54,3.54,0,0,1,1.18-.82,3.78,3.78,0,0,1,1.45-.27,3.54,3.54,0,0,1,2.73,1.19,4.87,4.87,0,0,1,1.08,3.4,6.43,6.43,0,0,1-.49,2.61A3.67,3.67,0,0,1,244.86,84a3.7,3.7,0,0,1-3.61.17A4.37,4.37,0,0,1,240,83v1.34h-3.24Zm3.47,7.93a2.6,2.6,0,0,0,.44,1.68,1.38,1.38,0,0,0,1.11.53,1.28,1.28,0,0,0,1-.52,2.76,2.76,0,0,0,.42-1.73,2.42,2.42,0,0,0-.41-1.57,1.23,1.23,0,0,0-1-.5,1.44,1.44,0,0,0-1.15.52A2.39,2.39,0,0,0,240.24,79.77Z"/>
    <path class="cls-4" d="M248,79.82a4.52,4.52,0,0,1,1.39-3.41,6,6,0,0,1,7.87.24,4.92,4.92,0,0,1-.27,6.53,5.27,5.27,0,0,1-3.82,1.33,5.39,5.39,0,0,1-3.52-1.1A4.45,4.45,0,0,1,248,79.82Zm3.47,0a2.74,2.74,0,0,0,.48,1.78,1.6,1.6,0,0,0,2.46,0,2.82,2.82,0,0,0,.48-1.83,2.66,2.66,0,0,0-.48-1.74,1.5,1.5,0,0,0-1.2-.58,1.56,1.56,0,0,0-1.25.59A2.65,2.65,0,0,0,251.42,79.81Z"/>
    <path class="cls-4" d="M269.5,84.31h-3.23V82.84a4.86,4.86,0,0,1-1.46,1.29,3.93,3.93,0,0,1-1.8.38,2.92,2.92,0,0,1-2.24-.85A3.68,3.68,0,0,1,260,81V75.28h3.48v5a1.83,1.83,0,0,0,.32,1.21,1.1,1.1,0,0,0,.88.36,1.28,1.28,0,0,0,1-.48,2.79,2.79,0,0,0,.39-1.71V75.28h3.46Z"/>
    <path class="cls-4" d="M275.78,71.84v3.44h1.9v2.53h-1.9V81a1.62,1.62,0,0,0,.11.76.61.61,0,0,0,.59.29,3.6,3.6,0,0,0,1.07-.22l.26,2.39a11.14,11.14,0,0,1-2.4.28,4.17,4.17,0,0,1-1.9-.33,2,2,0,0,1-.91-1,6,6,0,0,1-.29-2.18V77.81H271V75.28h1.28V73.62Z"/>

    <path class="cls-4" d="M99.83,40.05a4.17,4.17,0,1,1-4.16-4.17A4.16,4.16,0,0,1,99.83,40.05Z"/>
    <circle class="cls-4" cx="109.84" cy="40.05" r="4.17"/>
    <circle class="cls-4" cx="124.01" cy="40.05" r="4.17"/>
  </g>
</svg>
