<svg xmlns="http://www.w3.org/2000/svg" xmlns:xlink="http://www.w3.org/1999/xlink" viewBox="0 0 580 350">
  <defs>
    <style>.cls-1,.cls-9{fill:none;}.cls-2{fill:#FBFAFF;}.cls-3{fill:#3e3e3e;}.cls-4{fill:#333333;}.cls-5{clip-path:url(#clip-path);}.cls-6{fill:#fff;}.cls-7{fill:#D62828;}.cls-8{fill:#F77F00;}.cls-9{stroke:#F77F00;stroke-miterlimit:10;stroke-width:2.13px;}.cls-10{fill:#fff;stroke:#F2EBFB;stroke-miterlimit:10;stroke-width:2px;}
    </style>
    <clipPath id="clip-path">
      <polygon class="cls-1" points="66.09 301.51 66.7 69.5 495.73 69.5 495.12 301.51 66.09 301.51"/>
    </clipPath>
  </defs>
  <g id="Layer_2" data-name="Layer 2">
    <g id="OBJECTS">
      <path transform="translate(5 15)" class="cls-2" d="M129.76,72.25V57.51A6.77,6.77,0,0,0,123,50.74h0a6.75,6.75,0,0,1-6.35-4.42,51.22,51.22,0,0,0-2-4.91A6.74,6.74,0,0,1,116,33.79h0a6.75,6.75,0,0,0,0-9.57L105.55,13.79a6.78,6.78,0,0,0-9.58,0h0a6.72,6.72,0,0,1-7.61,1.36c-1.61-.76-3.25-1.43-4.91-2A6.73,6.73,0,0,1,79,6.77h0A6.77,6.77,0,0,0,72.25,0H57.51a6.77,6.77,0,0,0-6.77,6.77h0a6.73,6.73,0,0,1-4.43,6.35c-1.66.6-3.3,1.27-4.9,2a6.74,6.74,0,0,1-7.62-1.36h0a6.77,6.77,0,0,0-9.57,0L13.79,24.22a6.77,6.77,0,0,0,0,9.57h0a6.74,6.74,0,0,1,1.36,7.62,51.22,51.22,0,0,0-2,4.91,6.75,6.75,0,0,1-6.35,4.42h0A6.77,6.77,0,0,0,0,57.51V72.25A6.77,6.77,0,0,0,6.77,79h0a6.74,6.74,0,0,1,6.35,4.43,52.3,52.3,0,0,0,2,4.91A6.72,6.72,0,0,1,13.79,96h0a6.78,6.78,0,0,0,0,9.58L24.22,116a6.75,6.75,0,0,0,9.57,0h0a6.74,6.74,0,0,1,7.62-1.36c1.6.76,3.24,1.44,4.9,2A6.72,6.72,0,0,1,50.74,123h0a6.77,6.77,0,0,0,6.77,6.77H72.25A6.77,6.77,0,0,0,79,123h0a6.72,6.72,0,0,1,4.43-6.34q2.49-.9,4.91-2A6.72,6.72,0,0,1,96,116h0a6.77,6.77,0,0,0,9.58,0L116,105.55A6.77,6.77,0,0,0,116,96h0a6.73,6.73,0,0,1-1.36-7.61,52.3,52.3,0,0,0,2-4.91A6.74,6.74,0,0,1,123,79h0A6.77,6.77,0,0,0,129.76,72.25ZM84.18,84.46h0a27.29,27.29,0,0,1-19.3,8h0a27.29,27.29,0,0,1-19.3-8h0a27.29,27.29,0,0,1-8-19.3h0a27.29,27.29,0,0,1,8-19.3h0a27.29,27.29,0,0,1,19.3-8h0a27.29,27.29,0,0,1,19.3,8h0a27.29,27.29,0,0,1,8,19.3h0A27.29,27.29,0,0,1,84.18,84.46Z"/>
      <path transform="translate(20 -65)" class="cls-2" d="M531.86,379.73V369.49a4.71,4.71,0,0,0-4.7-4.71h0a4.66,4.66,0,0,1-4.41-3.07c-.42-1.15-.89-2.29-1.41-3.41a4.66,4.66,0,0,1,.94-5.28h0a4.71,4.71,0,0,0,0-6.66L515,339.12a4.71,4.71,0,0,0-6.65,0h0a4.66,4.66,0,0,1-5.29.95,34.94,34.94,0,0,0-3.41-1.41,4.68,4.68,0,0,1-3.07-4.41h0a4.7,4.7,0,0,0-4.7-4.7H481.68a4.7,4.7,0,0,0-4.71,4.7h0a4.68,4.68,0,0,1-3.07,4.41,36,36,0,0,0-3.41,1.41,4.66,4.66,0,0,1-5.28-.95h0a4.73,4.73,0,0,0-6.66,0l-7.24,7.24a4.73,4.73,0,0,0,0,6.66h0a4.66,4.66,0,0,1,.95,5.28c-.53,1.12-1,2.25-1.42,3.41a4.64,4.64,0,0,1-4.4,3.07h0a4.71,4.71,0,0,0-4.71,4.71v10.24a4.7,4.7,0,0,0,4.71,4.7h0a4.66,4.66,0,0,1,4.4,3.07c.42,1.16.89,2.3,1.42,3.41a4.68,4.68,0,0,1-.95,5.29h0a4.71,4.71,0,0,0,0,6.65l7.24,7.24a4.71,4.71,0,0,0,6.66,0h0a4.66,4.66,0,0,1,5.28-.94c1.12.52,2.25,1,3.41,1.41A4.68,4.68,0,0,1,477,415h0a4.7,4.7,0,0,0,4.71,4.7h10.24a4.7,4.7,0,0,0,4.7-4.7h0a4.68,4.68,0,0,1,3.07-4.41c1.16-.41,2.3-.89,3.41-1.41a4.68,4.68,0,0,1,5.29.94h0a4.7,4.7,0,0,0,6.65,0l7.24-7.24a4.7,4.7,0,0,0,0-6.65h0a4.68,4.68,0,0,1-.94-5.29c.52-1.11,1-2.25,1.41-3.41a4.67,4.67,0,0,1,4.41-3.07h0A4.7,4.7,0,0,0,531.86,379.73Zm-31.66,8.48h0a19,19,0,0,1-13.4,5.55h0a19,19,0,0,1-13.41-5.55h0a19,19,0,0,1-5.55-13.41h0a19,19,0,0,1,5.55-13.4h0a19,19,0,0,1,13.41-5.56h0a18.94,18.94,0,0,1,13.4,5.56h0a18.92,18.92,0,0,1,5.56,13.4h0A19,19,0,0,1,500.2,388.21Z"/>
      <rect class="cls-10" x="69" y="60" width="428" height="250"/>
      <rect class="cls-4" x="68" y="310" width="430" height="24.23"/>
      <rect class="cls-4" x="68" y="52" width="430" height="16.46"/>
      <rect class="cls-7" x="151.73" y="229.78" width="49.1" height="49.1" rx="6.33"/>
      <rect class="cls-8" x="92.91" y="229.78" width="49.1" height="49.1" rx="6.33"/>
      <rect class="cls-2" x="80.91" y="88.9" width="127.74" height="118.35" rx="5.8"/>
      <path class="cls-8" d="M86.72,88.9H202.85a5.8,5.8,0,0,1,5.8,5.8v10.06a0,0,0,0,1,0,0H80.91a0,0,0,0,1,0,0V94.7A5.8,5.8,0,0,1,86.72,88.9Z"/>
      <path class="cls-6" d="M176.27,97.37a3.64,3.64,0,1,1-3.64-3.64A3.64,3.64,0,0,1,176.27,97.37Z"/>
      <path class="cls-6" d="M188.76,97.37a3.64,3.64,0,1,1-3.64-3.64A3.64,3.64,0,0,1,188.76,97.37Z"/>
      <path class="cls-6" d="M201.25,97.37a3.64,3.64,0,1,1-3.64-3.64A3.64,3.64,0,0,1,201.25,97.37Z"/>
      <path class="cls-6" d="M468.81,116.76H234.43c-6.61,0-12-5.92-12-13.21h0c0-7.29,5.35-13.21,12-13.21H468.81c6.6,0,11.95,5.92,11.95,13.21h0C480.76,110.84,475.41,116.76,468.81,116.76Z"/>
      <path class="cls-8" d="M468.81,90.34H425.43c6.61,0,12,5.92,12,13.21s-5.35,13.21-12,13.21h43.38c6.6,0,11.95-5.92,11.95-13.21S475.41,90.34,468.81,90.34Z"/>
      <path class="cls-9" d="M468.81,116.76H234.43c-6.61,0-12-5.92-12-13.21h0c0-7.29,5.35-13.21,12-13.21H468.81c6.6,0,11.95,5.92,11.95,13.21h0C480.76,110.84,475.41,116.76,468.81,116.76Z"/>
      <path class="cls-6" d="M463.35,108.69l-2.59-2.86a7.05,7.05,0,0,0-.79-8.12,5.52,5.52,0,0,0-8.34,0,7,7,0,0,0,0,9.21,5.49,5.49,0,0,0,7.35.87l2.59,2.87a1.18,1.18,0,0,0,1.78,0A1.5,1.5,0,0,0,463.35,108.69Zm-10.26-3.38a4.55,4.55,0,0,1,0-6,3.59,3.59,0,0,1,5.42,0,4.55,4.55,0,0,1,0,6A3.59,3.59,0,0,1,453.09,105.31Z"/>
      <rect class="cls-2" x="237.42" y="143.77" width="207.45" height="7.51" rx="2.21"/>
      <rect class="cls-2" x="224.04" y="128.87" width="219.73" height="10.76" rx="2.17"/>
      <rect class="cls-2" x="224.04" y="162.54" width="151.31" height="82.35" rx="1.8"/>
      <rect class="cls-2" x="224.04" y="251.75" width="219.73" height="24.96" rx="2.17" transform="translate(667.8 528.46) rotate(180)"/>
      <rect class="cls-2" x="224.04" y="143.77" width="8.66" height="7.51" rx="2.21"/>
    </g>
  </g>
</svg>
