<svg xmlns="http://www.w3.org/2000/svg" xmlns:xlink="http://www.w3.org/1999/xlink" viewBox="0 0 225.88 321.32">
  <defs>
    <style>.cls-1{isolation:isolate;}.cls-2{fill:none;stroke:#F77F00;stroke-miterlimit:10;stroke-width:7px;}.cls-3{fill:#D62828;}.cls-4{opacity:0.26;fill:url(#Degradado_sin_nombre_8);}.cls-5{fill:#F77F00;}.cls-6{fill:#ffffff;}.cls-7{fill:url(#Degradado_sin_nombre_13);}.cls-8{fill:#D62828;}.cls-9{fill:#F77F00;}.cls-10{fill:#F77F00;opacity:0.4}.cls-11{fill:#F2EBFB;}.cls-12{fill:url(#Degradado_sin_nombre_18);}.cls-13{fill:#9e9e9e;}.cls-14{fill:#d6d6d6;}.cls-15{fill:#ededed;}.cls-16{fill:url(#Degradado_sin_nombre_21);}.cls-17{opacity:0.38;mix-blend-mode:multiply;}.cls-18{fill:#606060;}</style>
    <linearGradient id="Degradado_sin_nombre_8" x1="160.33" y1="74.58" x2="160.33" y2="40.34" gradientUnits="userSpaceOnUse">
      <stop offset="0.06" stop-color="#fff"/>
      <stop offset="0.14" stop-color="#fff" stop-opacity="0.98"/>
      <stop offset="0.26" stop-color="#fff" stop-opacity="0.9"/>
      <stop offset="0.4" stop-color="#fff" stop-opacity="0.79"/>
      <stop offset="0.55" stop-color="#fff" stop-opacity="0.63"/>
      <stop offset="0.72" stop-color="#fff" stop-opacity="0.42"/>
      <stop offset="0.89" stop-color="#fff" stop-opacity="0.18"/>
      <stop offset="1" stop-color="#fff" stop-opacity="0"/>
    </linearGradient>
    <linearGradient id="Degradado_sin_nombre_13" x1="174.95" y1="124.61" x2="174.95" y2="101.49" gradientUnits="userSpaceOnUse">
      <stop offset="0" stop-color="#D62828"/>
      <stop offset="1" stop-color="#D62828" stop-opacity="0"/>
    </linearGradient>
    <linearGradient id="Degradado_sin_nombre_18" x1="26.75" y1="88.38" x2="80.38" y2="88.38" gradientUnits="userSpaceOnUse">
      <stop offset="0" stop-color="#fff"/>
      <stop offset="1" stop-color="#fff" stop-opacity="0"/>
    </linearGradient>
    <linearGradient id="Degradado_sin_nombre_21" x1="57.02" y1="94.28" x2="111.62" y2="94.28" gradientUnits="userSpaceOnUse">
      <stop offset="0.35" stop-color="#fff"/>
      <stop offset="0.41" stop-color="#fff" stop-opacity="0.98"/>
      <stop offset="0.49" stop-color="#fff" stop-opacity="0.91"/>
      <stop offset="0.58" stop-color="#fff" stop-opacity="0.8"/>
      <stop offset="0.69" stop-color="#fff" stop-opacity="0.65"/>
      <stop offset="0.79" stop-color="#fff" stop-opacity="0.45"/>
      <stop offset="0.91" stop-color="#fff" stop-opacity="0.22"/>
      <stop offset="1" stop-color="#fff" stop-opacity="0"/>
    </linearGradient>
  </defs>
  <g class="cls-1">
    <g id="Layer_2" data-name="Layer 2">
      <g id="OBJECTS">
        <path class="cls-2" d="M137.91,124.61V75.15a41,41,0,0,1,41-41h2.5a41,41,0,0,1,41,41v49.46"/>
        <path class="cls-3" d="M219,124.61H86.91V34.17h91.87c18,0,40.2,14.59,40.2,32.6Z"/>
        <path class="cls-4" d="M195.92,74.58H133a13.54,13.54,0,0,1-13.43-11.82L112,40.34H183.3c11.63,0,27.49,9.45,25.17,22.84-1,5.93-5.37,11-11.62,11.37C196.54,74.57,196.24,74.58,195.92,74.58Z"/> 
        <rect class="cls-7" x="130.93" y="101.49" width="88.05" height="23.12"/>
        <path class="cls-8" d="M129.14,124.61H44.67V75.15a41,41,0,0,1,41-41h2.5a41,41,0,0,1,41,41Z"/>
        <rect class="cls-9" y="116.19" width="129.14" height="8.42"/>
        <rect class="cls-8" x="139.56" y="124.61" width="20.3" height="196.71"/>
        <polygon class="cls-10" points="159.86 146.09 139.56 156.09 139.56 124.61 159.86 124.61 159.86 146.09"/>        
        <g class="cls-17">
          <path class="cls-18" d="M85,34.17h-2.5a41.38,41.38,0,0,0-10.15,1.26,41,41,0,0,1,30.84,39.72v49.46h22.79V75.15A41,41,0,0,0,85,34.17Z"/>
        </g>
        <path class="cls-9" d="M88.16,30.67H85.65a44.13,44.13,0,0,0-42.06,29.9h7.56a37.12,37.12,0,0,1,34.5-22.9h2.51a37.52,37.52,0,0,1,37.48,37.48v49.46h7V75.15A44.53,44.53,0,0,0,88.16,30.67Z"/>
      </g>
    </g>
  </g>
</svg>
