<svg xmlns="http://www.w3.org/2000/svg" viewBox="0 0 489.02 255.75">
  <defs><style>.cls-1,.cls-11,.cls-5,.cls-7,.cls-9{fill:#fff;}.cls-1,.cls-11,.cls-9{stroke:#F2EBFB;}.cls-1{stroke-miterlimit:10;}.cls-2{fill:#FBFAFF;}.cls-3{fill:#F2EBFB;}.cls-10,.cls-4,.cls-6{fill:none;}.cls-4{stroke:#F77F00;}.cls-10,.cls-11,.cls-4,.cls-5,.cls-6,.cls-9{stroke-linecap:round;stroke-linejoin:round;}.cls-10,.cls-11,.cls-4,.cls-5,.cls-6{stroke-width:1.5px;}.cls-5,.cls-6{stroke:#fff;}.cls-12,.cls-8{fill:#F77F00;}.cls-10{stroke:#D62828;}.cls-12{font-size:36px;font-family:D-DIN-Bold, D DIN-Bold;font-weight:700;}.cls-13{fill:#333333;}.cls-14{fill:#D62828;}
  </style></defs>
  <g id="Layer_2" data-name="Layer 2">
    <g id="OBJECTS">
    <rect class="cls-1" x="57.06" y="0.5" width="371.64" height="254.75"/>
    <rect class="cls-13" x="57.06" y="231.02" width="371.64" height="24.23"/>
    <rect class="cls-13" x="56.98" y="0.98" width="371.64" height="16.46"/>
    <path class="cls-1" d="M248.79,243.13a5.92,5.92,0,1,0-5.91,5.92A5.92,5.92,0,0,0,248.79,243.13Z"/>
    <rect class="cls-2" x="81.82" y="32.5" width="134.37" height="91.27"/>
    <rect class="cls-3" x="81.82" y="120.51" width="134.37" height="3.27"/>
    <polyline class="cls-4" points="104.64 97.91 122.73 62.88 140.4 89.51 161.25 68.5 174.65 84.19 195.88 94.35"/>
    <path class="cls-14" d="M106.85,97.91a2.21,2.21,0,1,0-2.21,2.21A2.21,2.21,0,0,0,106.85,97.91Z"/>
    <path class="cls-14" d="M163.46,68.5a2.21,2.21,0,1,0-2.21,2.21A2.21,2.21,0,0,0,163.46,68.5Z"/>
    <circle class="cls-14" cx="140.4" cy="89.51" r="2.21"/>
    <path class="cls-14" d="M176.86,84.19a2.21,2.21,0,1,0-2.21,2.21A2.21,2.21,0,0,0,176.86,84.19Z"/>
    <path class="cls-14" d="M124.94,62.88a2.21,2.21,0,1,0-2.21,2.21A2.21,2.21,0,0,0,124.94,62.88Z"/>
    <path class="cls-14" d="M198.09,94.35a2.21,2.21,0,1,0-2.21,2.21A2.21,2.21,0,0,0,198.09,94.35Z"/>
    <line class="cls-6" x1="104.64" y1="109.04" x2="195.88" y2="109.04"/>
    <rect class="cls-14" x="174.43" y="38.84" width="35.03" height="6.16"/>
    <rect class="cls-8" x="191.59" y="47.93" width="17.87" height="6.16"/>
    <rect class="cls-2" x="81.82" y="131.97" width="134.37" height="79.04"/>
    <rect class="cls-3" x="81.82" y="207.75" width="134.37" height="3.27"/>
    <rect class="cls-8" x="94.32" y="152.73" width="115.13" height="4.42"/>
    <rect class="cls-7" x="94.32" y="163.2" width="115.13" height="4.42"/>
    <rect class="cls-7" x="94.32" y="173.66" width="71.35" height="4.42"/>
    <rect class="cls-8" x="94.32" y="184.13" width="51.62" height="4.42"/>
    <rect class="cls-8" x="151.46" y="184.13" width="29" height="4.42"/>
    <rect class="cls-7" x="94.32" y="194.6" width="31.4" height="4.42"/>
    <rect class="cls-2" x="230.39" y="32.5" width="173.54" height="22.6"/>
    <rect class="cls-3" x="230.39" y="55.1" width="173.54" height="3.27"/>
    <rect class="cls-8" x="242.89" y="44.24" width="61.64" height="4.42"/>
    <rect class="cls-7" x="308.3" y="44.24" width="25.87" height="4.42"/>
    <rect class="cls-2" x="230.39" y="62.95" width="173.54" height="22.6"/>
    <rect class="cls-3" x="230.39" y="85.55" width="173.54" height="3.27"/>
    <rect class="cls-8" x="242.89" y="74.69" width="28.18" height="4.42"/>
    <rect class="cls-8" x="305.54" y="74.69" width="82.29" height="4.42"/>
    <rect class="cls-7" x="275.76" y="74.69" width="25.87" height="4.42"/>
    <rect class="cls-2" x="230.39" y="93.4" width="173.54" height="22.6"/>
    <rect class="cls-3" x="230.39" y="116" width="173.54" height="3.27"/>
    <rect class="cls-8" x="242.89" y="105.15" width="61.64" height="4.42"/>
    <rect class="cls-2" x="230.39" y="123.86" width="173.54" height="22.6"/>
    <rect class="cls-3" x="230.39" y="146.46" width="173.54" height="3.27"/>
    <rect class="cls-8" x="242.89" y="135.6" width="43.18" height="4.42"/>
    <rect class="cls-7" x="291.08" y="135.6" width="72.69" height="4.42"/>
    <rect class="cls-7" x="369.23" y="135.6" width="11.97" height="4.42"/>
    <rect class="cls-2" x="230.39" y="159.38" width="173.54" height="51.63"/>
    <rect class="cls-3" x="230.39" y="207.75" width="173.54" height="3.27"/>
    <rect class="cls-10" x="236.73" y="165.72" width="6.16" height="6.16"/>
    <line class="cls-10" x1="255.22" y1="171.88" x2="249.06" y2="171.88"/>
    <rect class="cls-8" x="263.3" y="172.74" width="24.92" height="24.92"/>
    <line class="cls-6" x1="269.59" y1="191.37" x2="281.93" y2="179.03"/>
    <line class="cls-6" x1="281.93" y1="191.37" x2="269.59" y2="179.03"/>
    <rect class="cls-8" x="297.31" y="172.74" width="24.92" height="24.92"/>
    <line class="cls-6" x1="303.6" y1="191.37" x2="315.95" y2="179.03"/>
    <rect class="cls-11" x="0.75" y="138.73" width="69.61" height="111.74" rx="7.66"/>
    <path class="cls-10" d="M94.16,154.44c-16.94,0-16.12,12.84-31.42,12.84"/>
    <path class="cls-10" d="M57.06,167.28h0a2.84,2.84,0,0,1,2.84-2.84h0a2.84,2.84,0,0,1,2.84,2.84h0a2.84,2.84,0,0,1-2.84,2.84h0A2.84,2.84,0,0,1,57.06,167.28Z"/>
    <path class="cls-10" d="M94.16,154.44h0A2.84,2.84,0,0,1,97,151.6h0a2.84,2.84,0,0,1,2.84,2.84h0A2.84,2.84,0,0,1,97,157.28h0A2.84,2.84,0,0,1,94.16,154.44Z"/>
    </g>
  </g>
</svg>
