<svg xmlns="http://www.w3.org/2000/svg" viewBox="-20 -20 400 400">
  <defs><style>.cls-1{fill:#D62828;}.cls-2{fill:#F2EBFB;}.cls-3{fill:#f28f8f;}.cls-4{fill:#333333;}.cls-5{fill:#ffa8a7;}.cls-6{fill:#3c3c3c;}.cls-7{opacity:0.2;}.cls-8{fill:#F77F00;}.cls-9{opacity:0.1;}.cls-10{fill:#333;}.cls-11{fill:#fff;opacity:0.6;}.cls-12,.cls-13,.cls-14{fill:none;}.cls-12{stroke:#D62828;stroke-miterlimit:10;stroke-width:1px;}.cls-13,.cls-14{stroke:#F77F00;stroke-linecap:round;stroke-linejoin:round;stroke-width:3px;}.cls-14{fill-rule:evenodd;}</style></defs>
  <g id="Layer_2" data-name="Layer 2">
    <g id="Information_Architect" data-name="Information Architect">
      <circle class="cls-12" cx="177.86" cy="41" r="38.87"/>
      <path class="cls-12" d="M177.86,81a40,40,0,1,1,40-40A40,40,0,0,1,177.86,81Zm0-77.74A37.74,37.74,0,1,0,215.59,41,37.78,37.78,0,0,0,177.86,3.26Z"/>
      <circle class="cls-12" cx="41" cy="139.81" r="38.86"/>
      <path class="cls-12" d="M79,152.17a40,40,0,1,1-25.68-50.4A40,40,0,0,1,79,152.17Zm-73.93-24a37.74,37.74,0,1,0,47.55-24.22A37.78,37.78,0,0,0,5.11,128.15Z"/>
      <circle class="cls-12" cx="92.68" cy="300.51" r="38.88"/>
      <path class="cls-12" d="M116.2,268.13A40,40,0,1,1,60.31,277,40.06,40.06,0,0,1,116.2,268.13ZM70.5,331.05a37.75,37.75,0,1,0-8.36-52.73A37.79,37.79,0,0,0,70.5,331.05Z"/>
      <circle class="cls-12" cx="261.48" cy="301.01" r="38.88"/>
      <path class="cls-12" d="M238,268.64a40,40,0,1,1-8.85,55.89A40.07,40.07,0,0,1,238,268.64Zm45.71,62.91a37.75,37.75,0,1,0-52.73-8.35A37.79,37.79,0,0,0,283.67,331.55Z"/>
      <circle class="cls-12" cx="314.12" cy="140.62" r="38.86"/>
      <path class="cls-12" d="M276.09,153a40,40,0,1,1,50.39,25.68A40,40,0,0,1,276.09,153ZM350,129a37.73,37.73,0,1,0-24.23,47.55A37.78,37.78,0,0,0,350,129Z"/>
      <line class="cls-13" x1="21.98" y1="162.16" x2="60.02" y2="162.16"/>
      <line class="cls-13" x1="16.69" y1="154.23" x2="65.31" y2="154.23"/>
      <circle class="cls-1" cx="23.38" cy="144.55" r="2.64"/>
      <path class="cls-8" d="M31.14,138.9A13.65,13.65,0,0,1,34,134.83a17.33,17.33,0,0,1,1.76-1.57,2.15,2.15,0,0,1,1-.57,6.21,6.21,0,0,1,1.47.06,2.1,2.1,0,0,0,1.31-.16,9.28,9.28,0,0,0,.9-.76c.59-.51,1.15-1.07,1.72-1.61,1.13-1.1,2.18-2.31,3.24-3.52,2.09-2.44,4.11-5,6.38-7.18,2.41-2,4.11-5,8.81-3.7a3.15,3.15,0,0,1,2.3,3.28c-.4,4.86-3.81,5.42-6.49,7-2.84,1.38-5.92,2.41-8.93,3.54-1.49.58-3,1.15-4.41,1.84-.71.35-1.42.69-2.11,1.06a9.33,9.33,0,0,0-1,.59,2.11,2.11,0,0,0-.6,1.17,6.32,6.32,0,0,1-.44,1.41,2.1,2.1,0,0,1-.89.76,17.16,17.16,0,0,1-2.07,1.12A13.86,13.86,0,0,1,31.14,138.9Z"/>
      <line class="cls-13" x1="158.53" y1="34.29" x2="197.68" y2="34.29"/>
      <line class="cls-13" x1="160.05" y1="54.05" x2="169.66" y2="44.44"/>
      <line class="cls-13" x1="160.05" y1="54.41" x2="169.66" y2="64.02"/>
      <line class="cls-13" x1="195.94" y1="54.05" x2="186.33" y2="44.44"/>
      <line class="cls-13" x1="195.94" y1="54.41" x2="186.33" y2="64.02"/>
      <circle class="cls-1" cx="159.73" cy="20.7" r="2.72"/>
      <circle class="cls-1" cx="195.98" cy="20.7" r="2.72"/>
      <circle class="cls-1" cx="177.86" cy="20.7" r="2.72"/>
      <circle class="cls-1" cx="327.23" cy="128.41" r="2.15"/>
      <circle class="cls-1" cx="327.23" cy="140.62" r="2.15"/>
      <circle class="cls-1" cx="327.23" cy="152.84" r="2.15"/>
      <path class="cls-13" d="M317.74,116.2h8.55a10.44,10.44,0,0,1,10.43,10.43v28a10.44,10.44,0,0,1-10.43,10.43h-8.55"/>
      <path class="cls-13" d="M310.51,165.05a10.43,10.43,0,0,1-10.43-10.43v-28a10.43,10.43,0,0,1,10.43-10.43"/>
      <path class="cls-13" d="M310.51,165.05H302a10.43,10.43,0,0,1-10.43-10.43v-28A10.43,10.43,0,0,1,302,116.2h8.55"/>
      <path class="cls-13" d="M281.31,294c0,9.25-13.22,23.79-13.22,23.79H254.88S241.66,303.59,241.66,294c0-11.68,8.87-21.15,19.82-21.15S281.31,282.28,281.31,294Z"/>
      <polyline class="cls-13" points="254.88 323.92 256.64 329.2 266.33 329.2 268.09 323.92"/>
      <circle class="cls-1" cx="254.59" cy="284.9" r="3.02"/>
      <circle class="cls-8" cx="70.68" cy="287.01" r="3"/>
      <circle class="cls-8" cx="82.68" cy="277.01" r="3"/>
      <circle class="cls-8" cx="102.68" cy="277.01" r="3"/>
      <circle class="cls-8" cx="114.68" cy="287.01" r="3"/>
      <circle class="cls-1" cx="99.43" cy="302.51" r="3"/>
      <circle class="cls-13" cx="92.68" cy="308.51" r="18.5"/>
      <path class="cls-14" d="M90,290.21c-5.21,14.31,10.91,23,5.68,36.56"/>
    </g>
  </g>
</svg>
