<svg xmlns="http://www.w3.org/2000/svg" xmlns:xlink="http://www.w3.org/1999/xlink" viewBox="0 0 2187.71 1126">
  <defs>
    <style>.cls-1{fill:#F2EBFB;}.cls-2{fill:#FBFAFF;}.cls-3{fill:#333333;}.cls-4{fill:#D62828;}.cls-5{fill:#fff;}.cls-6{clip-path:url(#clip-path);}.cls-7{clip-path:url(#clip-path-2);}.cls-8{fill:#F77F00;}.cls-9{fill:#D62828;}</style>
    <clipPath id="clip-path">
      <rect class="cls-1" x="295.64" y="702.88" width="595.92" height="371.48" rx="15.42"/>
    </clipPath>
    <clipPath id="clip-path-2">
      <rect class="cls-1" x="1549.66" y="558.03" width="284.29" height="387.48" rx="6.6"/>
    </clipPath>
  </defs>
  <g id="Layer_2" data-name="Layer 2">
    <g id="Layer_1-2" data-name="Layer 1">
      <rect class="cls-2" x="164.76" y="136.54" width="1836.2" height="989.46"/>
      <polygon class="cls-3" points="2000.96 0 164.76 0 164.76 136.54 2000.96 136.54 2000.96 0 2000.96 0"/>
      <circle class="cls-4" cx="273.8" cy="73.1" r="21.69" transform="translate(139.47 322.64) rotate(-76.65)"/>
      <circle class="cls-5" cx="358.44" cy="73.1" r="21.69" transform="translate(228.68 415.13) rotate(-80.75)"/>
      <circle class="cls-5" cx="443.07" cy="73.1" r="21.69" transform="translate(299.71 498.67) rotate(-80.75)"/>
      <path class="cls-4" d="M1042.36,424h-8.26v-3.74h8.26Zm-16.52,0h-8.27v-3.74h8.27Zm-16.53,0h-8.26v-3.74h8.26Zm-16.52,0h-8.26v-3.74h8.26Zm-16.52,0H968v-3.74h8.26Zm-16.52,0h-8.26v-3.74h8.26Zm-16.52,0H935v-3.74h8.26Zm-16.52,0h-8.26v-3.74h8.26Zm-16.52,0h-8.26v-3.74h8.26Zm-16.52,0h-8.26v-3.74h8.26Zm-16.52,0h-8.26v-3.74h8.26Zm-16.52,0h-8.26v-3.74h8.26Zm-16.52,0h-8.26v-3.74h8.26Zm-16.52,0h-8.26v-3.74h8.26Zm-16.52,0h-8.26v-3.74h8.26Zm-16.52,0h-8.26v-3.74h8.26ZM778,424h-8.26v-3.74H778Zm-16.52,0h-8.26v-3.74h8.26ZM745,424h-8.27v-3.74H745Zm-16.53,0H720.2v-3.74h8.26Zm-16.52,0h-8.26v-3.74h8.26Zm-16.52,0h-8.26v-3.74h8.26Zm-16.52,0h-8.26v-3.74h8.26Zm-16.52,0h-8.26v-3.74h8.26Zm-16.52,0H637.6v-3.74h8.26Zm-16.52,0h-8.26v-3.74h8.26Zm-16.52,0h-8.26v-3.74h8.26Zm-16.52,0H588v-3.74h8.26Zm-16.52,0h-8.26v-3.74h8.26Zm-16.52,0H555v-3.74h8.26Zm-16.52,0h-8.26v-3.74h8.26Zm-16.52,0H522v-3.74h8.26Zm-16.52,0h-8.26v-3.74h8.26Zm-16.52,0h-8.26v-3.74h8.26Zm-16.52,0H472.4v-3.74h8.26Zm-16.52,0h-8.26v-3.74h8.26Zm-16.52,0h-8.26v-3.74h8.26Zm-16.53,0h-8.26v-3.74h8.26Zm-16.52,0h-8.26v-3.74h8.26Zm-16.52,0h-8.26v-3.74h8.26Zm-16.52,0h-8.26v-3.74h8.26ZM365,424h-8.26v-3.74H365Zm-16.52,0h-8.26v-3.74h8.26ZM332,424h-8.26v-3.74H332Zm-16.52,0h-8.26v-3.74h8.26Zm-16.52,0h-8.26v-3.74h8.26Zm-16.52,0h-8.26v-3.74h8.26Zm-16.52,0h-8.26v-3.74h8.26ZM254,419.41h-3.74v-8.26H254Zm790.24-1.48h-3.74v-8.26h3.74ZM254,402.89h-3.74v-8.26H254Zm790.24-1.48h-3.74v-8.26h3.74ZM254,386.37h-3.74v-8.26H254Zm790.24-1.48h-3.74v-8.26h3.74ZM254,369.85h-3.74v-8.26H254Zm790.24-1.48h-3.74v-8.26h3.74ZM254,353.33h-3.74v-8.26H254Zm790.24-1.48h-3.74v-8.26h3.74ZM254,336.81h-3.74v-8.26H254Zm790.24-1.48h-3.74v-8.26h3.74ZM254,320.29h-3.74V312H254Zm790.24-1.48h-3.74v-8.26h3.74ZM254,303.77h-3.74v-8.26H254Zm790.24-1.48h-3.74V294h3.74ZM254,287.25h-3.74V279H254Zm790.24-1.48h-3.74v-8.26h3.74ZM254,270.73h-3.74v-8.26H254Zm790.24-1.48h-3.74V261h3.74ZM254,254.21h-3.74V246H254Zm790.24-1.48h-3.74v-8.26h3.74ZM254,237.69h-3.74v-8.12h3.88v3.74H254Zm790.24-1.48h-3.74v-2.9h-1.63v-3.74h5.37Zm-13.63-2.9h-8.26v-3.74h8.26Zm-16.52,0h-8.26v-3.74h8.26Zm-16.52,0H989.3v-3.74h8.26Zm-16.52,0h-8.26v-3.74H981Zm-16.52,0h-8.26v-3.74h8.26Zm-16.52,0h-8.26v-3.74H948Zm-16.52,0h-8.26v-3.74h8.26Zm-16.52,0H906.7v-3.74H915Zm-16.52,0h-8.27v-3.74h8.27Zm-16.53,0h-8.26v-3.74h8.26Zm-16.52,0h-8.26v-3.74h8.26Zm-16.52,0h-8.26v-3.74h8.26Zm-16.52,0h-8.26v-3.74h8.26Zm-16.52,0h-8.26v-3.74h8.26Zm-16.52,0h-8.26v-3.74h8.26Zm-16.52,0h-8.26v-3.74h8.26Zm-16.52,0H758v-3.74h8.26Zm-16.52,0h-8.26v-3.74h8.26Zm-16.52,0H725v-3.74h8.26Zm-16.52,0h-8.26v-3.74h8.26Zm-16.52,0h-8.26v-3.74h8.26Zm-16.52,0h-8.26v-3.74h8.26Zm-16.52,0h-8.26v-3.74h8.26Zm-16.52,0h-8.26v-3.74h8.26Zm-16.52,0h-8.26v-3.74h8.26Zm-16.52,0h-8.26v-3.74h8.26Zm-16.52,0H592.8v-3.74h8.27Zm-16.53,0h-8.26v-3.74h8.26Zm-16.52,0h-8.26v-3.74H568Zm-16.52,0h-8.26v-3.74h8.26Zm-16.52,0h-8.26v-3.74H535Zm-16.52,0H510.2v-3.74h8.26Zm-16.52,0h-8.26v-3.74h8.26Zm-16.52,0h-8.26v-3.74h8.26Zm-16.52,0h-8.26v-3.74h8.26Zm-16.52,0h-8.26v-3.74h8.26Zm-16.52,0H427.6v-3.74h8.26Zm-16.52,0h-8.26v-3.74h8.26Zm-16.52,0h-8.26v-3.74h8.26Zm-16.52,0H378v-3.74h8.26Zm-16.52,0h-8.26v-3.74h8.26Zm-16.52,0H345v-3.74h8.26Zm-16.52,0h-8.26v-3.74h8.26Zm-16.52,0H312v-3.74h8.27Zm-16.53,0h-8.26v-3.74h8.26Zm-16.52,0h-8.26v-3.74h8.26Zm-16.52,0h-8.26v-3.74h8.26Z"/>
      <path class="cls-4" d="M1328.73,424h-8.26v-3.74h8.26Zm-16.52,0H1304v-3.74h8.26Zm-16.52,0h-8.26v-3.74h8.26Zm-16.52,0h-8.26v-3.74h8.26Zm-16.52,0h-8.26v-3.74h8.26Zm-16.52,0h-8.26v-3.74h8.26Zm-16.52,0h-8.26v-3.74h8.26Zm-16.52,0h-8.26v-3.74h8.26Zm-16.52,0h-8.26v-3.74h8.26Zm-16.52,0h-8.26v-3.74h8.26Zm-16.52,0h-8.26v-3.74h8.26ZM1147,424h-8.26v-3.74H1147Zm-16.53,0h-8.26v-3.74h8.26ZM1114,424h-8.26v-3.74H1114Zm-13.87-2.65h-3.74v-8.26h3.74ZM1330.6,414h-3.74v-8.26h3.74Zm-230.51-9.14h-3.74V396.6h3.74Zm230.51-7.38h-3.74v-8.27h3.74Zm-230.51-9.14h-3.74v-8.26h3.74ZM1330.6,381h-3.74v-8.26h3.74Zm-230.51-9.13h-3.74v-8.26h3.74Zm230.51-7.39h-3.74v-8.26h3.74Zm-230.51-9.13h-3.74V347h3.74Zm230.51-7.39h-3.74v-8.26h3.74Zm-230.51-9.13h-3.74v-8.26h3.74Zm230.51-7.39h-3.74v-8.26h3.74Zm-230.51-9.13h-3.74V314h3.74Zm230.51-7.39h-3.74v-8.26h3.74Zm-230.51-9.13h-3.74v-8.26h3.74Zm230.51-7.39h-3.74v-8.26h3.74Zm-230.51-9.13h-3.74V281h3.74Zm230.51-7.39h-3.74v-8.26h3.74Zm-230.51-9.13h-3.74v-8.26h3.74Zm230.51-7.39h-3.74v-8.26h3.74Zm-230.51-9.14h-3.74v-8.26h3.74Zm230.51-7.38h-3.74v-8.26h3.74Zm-230.51-9.14h-3.74V229.57h1.87l0,1.87h1.84Zm228.64-6.34h-7.43v-3.74h9.3v2.7h-1.87Zm-15.69,0h-8.26v-3.74H1313Zm-16.52,0h-8.26v-3.74h8.26Zm-16.52,0h-8.26v-3.74H1280Zm-16.52,0h-8.26v-3.74h8.26Zm-16.52,0h-8.26v-3.74H1247Zm-16.53,0h-8.26v-3.74h8.26Zm-16.52,0h-8.26v-3.74h8.26Zm-16.52,0h-8.26v-3.74h8.26Zm-16.52,0h-8.26v-3.74h8.26Zm-16.52,0h-8.26v-3.74h8.26Zm-16.52,0h-8.26v-3.74h8.26Zm-16.52,0h-8.26v-3.74h8.26Zm-16.52,0h-8.26v-3.74h8.26Z"/>
      <path class="cls-4" d="M1605.91,424h-8.26v-3.74h8.26Zm-16.52,0h-8.27v-3.74h8.27Zm-16.53,0h-8.26v-3.74h8.26Zm-16.52,0h-8.26v-3.74h8.26Zm-16.52,0h-8.26v-3.74h8.26Zm-16.52,0H1515v-3.74h8.26Zm-16.52,0h-8.26v-3.74h8.26Zm-16.52,0H1482v-3.74h8.26Zm-16.52,0h-8.26v-3.74h8.26Zm-16.52,0H1449v-3.74h8.26Zm-16.52,0h-8.26v-3.74h8.26Zm-16.52,0h-8.26v-3.74h8.26Zm-16.52,0h-8.26v-3.74h8.26Zm-16.52,0h-8.26v-3.74h8.26Zm-13.87-2.65h-3.74v-8.26h3.74ZM1607.78,414H1604v-8.26h3.74Zm-230.51-9.14h-3.74V396.6h3.74Zm230.51-7.38H1604v-8.27h3.74Zm-230.51-9.14h-3.74v-8.26h3.74ZM1607.78,381H1604v-8.26h3.74Zm-230.51-9.13h-3.74v-8.26h3.74Zm230.51-7.39H1604v-8.26h3.74Zm-230.51-9.13h-3.74V347h3.74Zm230.51-7.39H1604v-8.26h3.74Zm-230.51-9.13h-3.74v-8.26h3.74Zm230.51-7.39H1604v-8.26h3.74Zm-230.51-9.13h-3.74V314h3.74Zm230.51-7.39H1604v-8.26h3.74Zm-230.51-9.13h-3.74v-8.26h3.74Zm230.51-7.39H1604v-8.26h3.74Zm-230.51-9.13h-3.74V281h3.74Zm230.51-7.39H1604v-8.26h3.74Zm-230.51-9.13h-3.74v-8.26h3.74Zm230.51-7.39H1604v-8.26h3.74Zm-230.51-9.14h-3.74v-8.26h3.74Zm230.51-7.38H1604v-8.26h3.74Zm-230.51-9.14h-3.74V229.57h1.87l0,1.87h1.85Zm228.64-6.34h-7.44v-3.74h9.31v2.7h-1.87Zm-15.7,0H1582v-3.74h8.26Zm-16.52,0h-8.26v-3.74h8.26Zm-16.52,0h-8.26v-3.74h8.26Zm-16.52,0h-8.26v-3.74h8.26Zm-16.52,0h-8.26v-3.74h8.26Zm-16.52,0h-8.26v-3.74h8.26Zm-16.52,0h-8.26v-3.74h8.26Zm-16.52,0h-8.26v-3.74h8.26Zm-16.52,0h-8.26v-3.74h8.26Zm-16.52,0h-8.26v-3.74h8.26Zm-16.52,0h-8.26v-3.74H1425Zm-16.52,0h-8.26v-3.74h8.26Zm-16.52,0h-8.26v-3.74H1392Z"/>
      <path class="cls-4" d="M1880.54,424h-8.26v-3.74h8.26ZM1864,424h-8.26v-3.74H1864Zm-16.52,0h-8.26v-3.74h8.26ZM1831,424h-8.27v-3.74H1831Zm-16.53,0h-8.26v-3.74h8.26Zm-16.52,0h-8.26v-3.74h8.26Zm-16.52,0h-8.26v-3.74h8.26Zm-16.52,0h-8.26v-3.74h8.26Zm-16.52,0h-8.26v-3.74h8.26Zm-16.52,0h-8.26v-3.74h8.26Zm-16.52,0h-8.26v-3.74h8.26Zm-16.52,0h-8.26v-3.74h8.26Zm-16.52,0H1674v-3.74h8.26Zm-16.52,0h-8.26v-3.74h8.26Zm-13.87-2.65h-3.74v-8.26h3.74ZM1882.41,414h-3.74v-8.26h3.74Zm-230.51-9.14h-3.74V396.6h3.74Zm230.51-7.38h-3.74v-8.27h3.74Zm-230.51-9.14h-3.74v-8.26h3.74ZM1882.41,381h-3.74v-8.26h3.74Zm-230.51-9.13h-3.74v-8.26h3.74Zm230.51-7.39h-3.74v-8.26h3.74ZM1651.9,355.3h-3.74V347h3.74Zm230.51-7.39h-3.74v-8.26h3.74Zm-230.51-9.13h-3.74v-8.26h3.74Zm230.51-7.39h-3.74v-8.26h3.74Zm-230.51-9.13h-3.74V314h3.74Zm230.51-7.39h-3.74v-8.26h3.74Zm-230.51-9.13h-3.74v-8.26h3.74Zm230.51-7.39h-3.74v-8.26h3.74Zm-230.51-9.13h-3.74V281h3.74Zm230.51-7.39h-3.74v-8.26h3.74ZM1651.9,272.7h-3.74v-8.26h3.74Zm230.51-7.39h-3.74v-8.26h3.74Zm-230.51-9.14h-3.74v-8.26h3.74Zm230.51-7.38h-3.74v-8.26h3.74Zm-230.51-9.14h-3.74V229.57H1650l0,1.87h1.85Zm228.64-6.34h-7.44v-3.74h9.31v2.7h-1.87Zm-15.7,0h-8.26v-3.74h8.26Zm-16.52,0h-8.26v-3.74h8.26Zm-16.52,0h-8.26v-3.74h8.26Zm-16.52,0H1807v-3.74h8.26Zm-16.52,0h-8.26v-3.74h8.26Zm-16.52,0H1774v-3.74h8.26Zm-16.52,0h-8.26v-3.74h8.26Zm-16.52,0h-8.26v-3.74h8.26Zm-16.52,0h-8.26v-3.74h8.26Zm-16.52,0h-8.26v-3.74h8.26Zm-16.52,0h-8.26v-3.74h8.26Zm-16.52,0h-8.26v-3.74h8.26Zm-16.52,0h-8.26v-3.74h8.26Z"/>
      <path class="cls-4" d="M1042.36,990.48h-8.26v-3.73h8.26Zm-16.52,0h-8.27v-3.73h8.27Zm-16.53,0h-8.26v-3.73h8.26Zm-16.52,0h-8.26v-3.73h8.26Zm-16.52,0H968v-3.73h8.26Zm-16.52,0h-8.26v-3.73h8.26Zm-16.52,0H935v-3.73h8.26Zm-16.52,0h-8.26v-3.73h8.26Zm-16.52,0h-8.26v-3.73h8.26Zm-16.52,0h-8.26v-3.73h8.26Zm-16.52,0h-8.26v-3.73h8.26Zm-16.52,0h-8.26v-3.73h8.26Zm-16.52,0h-8.26v-3.73h8.26Zm-16.52,0h-8.26v-3.73h8.26Zm-16.52,0h-8.26v-3.73h8.26Zm-16.52,0h-8.26v-3.73h8.26Zm-16.52,0h-8.26v-3.73H778Zm-16.52,0h-8.26v-3.73h8.26Zm-16.52,0h-8.27v-3.73H745Zm-16.53,0H720.2v-3.73h8.26Zm-16.52,0h-8.26v-3.73h8.26Zm-16.52,0h-8.26v-3.73h8.26Zm-16.52,0h-8.26v-3.73h8.26Zm-16.52,0h-8.26v-3.73h8.26Zm-16.52,0H637.6v-3.73h8.26Zm-16.52,0h-8.26v-3.73h8.26Zm-16.52,0h-8.26v-3.73h8.26Zm-16.52,0H588v-3.73h8.26Zm-16.52,0h-8.26v-3.73h8.26Zm-16.52,0H555v-3.73h8.26Zm-16.52,0h-8.26v-3.73h8.26Zm-16.52,0H522v-3.73h8.26Zm-16.52,0h-8.26v-3.73h8.26Zm-16.52,0h-8.26v-3.73h8.26Zm-16.52,0H472.4v-3.73h8.26Zm-16.52,0h-8.26v-3.73h8.26Zm-16.52,0h-8.26v-3.73h8.26Zm-16.53,0h-8.26v-3.73h8.26Zm-16.52,0h-8.26v-3.73h8.26Zm-16.52,0h-8.26v-3.73h8.26Zm-16.52,0h-8.26v-3.73h8.26Zm-16.52,0h-8.26v-3.73H365Zm-16.52,0h-8.26v-3.73h8.26Zm-16.52,0h-8.26v-3.73H332Zm-16.52,0h-8.26v-3.73h8.26Zm-16.52,0h-8.26v-3.73h8.26Zm-16.52,0h-8.26v-3.73h8.26Zm-16.52,0h-8.26v-3.73h8.26ZM254,985.87h-3.74v-8.26H254Zm790.24-2.15h-3.74v-8.26h3.74ZM254,969.35h-3.74v-8.26H254Zm790.24-2.15h-3.74v-8.26h3.74ZM254,952.83h-3.74v-8.26H254Zm790.24-2.15h-3.74v-8.26h3.74ZM254,936.31h-3.74v-8.26H254Zm790.24-2.15h-3.74V925.9h3.74ZM254,919.79h-3.74v-8.26H254Zm790.24-2.15h-3.74v-8.26h3.74ZM254,903.26h-3.74V895H254Zm790.24-2.14h-3.74v-8.26h3.74ZM254,886.74h-3.74v-8.26H254Zm790.24-2.14h-3.74v-8.26h3.74ZM254,870.22h-3.74V862H254Zm790.24-2.14h-3.74v-8.26h3.74ZM254,853.7h-3.74v-8.26H254Zm790.24-2.14h-3.74V843.3h3.74ZM254,837.18h-3.74v-8.26H254ZM1044.23,835h-3.74v-8.26h3.74ZM254,820.66h-3.74V812.4H254Zm790.24-2.15h-3.74v-8.26h3.74ZM254,804.14h-3.74v-8.26H254ZM1044.23,802h-3.74v-8.26h3.74ZM254,787.62h-3.74v-8.26H254Zm790.24-2.15h-3.74v-8.26h3.74ZM254,771.1h-3.74v-8.26H254ZM1044.23,769h-3.74v-8.26h3.74ZM254,754.58h-3.74v-8.26H254Zm790.24-2.15h-3.74v-8.26h3.74ZM254,738.06h-3.74V729.8H254Zm790.24-2.15h-3.74v-8.26h3.74ZM254,721.54h-3.74v-8.26H254Zm790.24-2.15h-3.74v-8.26h3.74ZM254,705h-3.74v-8.26H254Zm790.24-2.15h-3.74v-8.26h3.74ZM254,688.5h-3.74v-8.26H254Zm790.24-2.15h-3.74v-8.26h3.74ZM254,672h-3.74v-8.26H254Zm790.24-2.15h-3.74v-8.26h3.74ZM254,655.46h-3.74V647.2H254Zm790.24-2.15h-3.74v-8.26h3.74ZM254,638.94h-3.74v-8.26H254Zm790.24-2.15h-3.74v-8.26h3.74ZM254,622.41h-3.74v-8.26H254Zm790.24-2.14h-3.74V612h3.74ZM254,605.89h-3.74v-8.26H254Zm790.24-2.14h-3.74v-8.26h3.74ZM254,589.37h-3.74v-8.26H254Zm790.24-2.14h-3.74V579h3.74ZM254,572.85h-3.74v-8.26H254Zm790.24-2.14h-3.74v-8.26h3.74ZM254,556.33h-3.74v-8.26H254Zm790.24-2.14h-3.74v-8.27h3.74ZM254,539.81h-3.74v-8.26H254Zm790.24-2.15h-3.74V529.4h3.74ZM254,523.29h-3.74V515H254Zm790.24-2.15h-3.74v-8.26h3.74ZM254,506.77h-3.74v-8.45h3.55v1.87H254Zm790.24-2.15h-3.74v-2.56h-2v-3.74h5.7Zm-14-2.56H1022v-3.74h8.26Zm-16.52,0h-8.26v-3.74h8.26Zm-16.52,0H989v-3.74h8.26Zm-16.52,0h-8.26v-3.74h8.26Zm-16.52,0h-8.26v-3.74h8.26Zm-16.52,0H939.4v-3.74h8.26Zm-16.52,0h-8.26v-3.74h8.26Zm-16.52,0h-8.26v-3.74h8.26Zm-16.52,0h-8.26v-3.74h8.26Zm-16.52,0h-8.26v-3.74h8.26Zm-16.52,0H856.8v-3.74h8.26Zm-16.52,0h-8.26v-3.74h8.26Zm-16.52,0h-8.26v-3.74H832Zm-16.52,0h-8.26v-3.74h8.26Zm-16.52,0h-8.26v-3.74H799Zm-16.52,0H774.2v-3.74h8.26Zm-16.52,0h-8.26v-3.74h8.26Zm-16.52,0h-8.26v-3.74h8.26Zm-16.52,0h-8.27v-3.74h8.27Zm-16.53,0h-8.26v-3.74h8.26Zm-16.52,0h-8.26v-3.74h8.26Zm-16.52,0h-8.26v-3.74h8.26Zm-16.52,0h-8.26v-3.74h8.26Zm-16.52,0H642v-3.74h8.26Zm-16.52,0h-8.26v-3.74h8.26Zm-16.52,0H609v-3.74h8.26Zm-16.52,0h-8.26v-3.74h8.26Zm-16.52,0H576v-3.74h8.26Zm-16.52,0h-8.26v-3.74h8.26Zm-16.52,0h-8.26v-3.74h8.26Zm-16.52,0h-8.26v-3.74h8.26Zm-16.52,0h-8.26v-3.74h8.26Zm-16.52,0h-8.26v-3.74h8.26Zm-16.52,0h-8.26v-3.74h8.26Zm-16.52,0h-8.26v-3.74h8.26Zm-16.52,0h-8.26v-3.74h8.26Zm-16.53,0h-8.26v-3.74h8.26Zm-16.52,0h-8.26v-3.74H419Zm-16.52,0h-8.26v-3.74h8.26Zm-16.52,0H377.7v-3.74H386Zm-16.52,0h-8.26v-3.74h8.26Zm-16.52,0h-8.26v-3.74h8.26Zm-16.52,0h-8.26v-3.74h8.26Zm-16.52,0h-8.26v-3.74h8.26Zm-16.52,0H295.1v-3.74h8.26Zm-16.52,0h-8.26v-3.74h8.26Zm-16.52,0h-8.26v-3.74h8.26Z"/>
      <path class="cls-4" d="M1885.77,990.48h-8.26v-3.73h8.26Zm-16.52,0H1861v-3.73h8.26Zm-16.52,0h-8.26v-3.73h8.26Zm-16.52,0H1828v-3.73h8.26Zm-16.52,0h-8.26v-3.73h8.26Zm-16.52,0h-8.26v-3.73h8.26Zm-16.52,0h-8.26v-3.73h8.26Zm-16.52,0h-8.26v-3.73h8.26Zm-16.52,0h-8.26v-3.73h8.26Zm-16.52,0h-8.26v-3.73h8.26Zm-16.52,0h-8.27v-3.73h8.27Zm-16.53,0h-8.26v-3.73H1704Zm-16.52,0h-8.26v-3.73h8.26Zm-16.52,0h-8.26v-3.73H1671Zm-16.52,0h-8.26v-3.73h8.26Zm-16.52,0h-8.26v-3.73H1638Zm-16.52,0h-8.26v-3.73h8.26Zm-16.52,0h-8.26v-3.73h8.26Zm-16.52,0h-8.26v-3.73h8.26Zm-16.52,0h-8.26v-3.73h8.26Zm-16.52,0h-8.26v-3.73h8.26Zm-16.52,0h-8.26v-3.73h8.26Zm-16.52,0h-8.26v-3.73h8.26Zm-16.52,0h-8.26v-3.73h8.26Zm-16.52,0H1481v-3.73h8.26Zm-16.52,0h-8.26v-3.73h8.26Zm-16.52,0H1448v-3.73h8.26Zm-16.52,0h-8.26v-3.73h8.26Zm-16.53,0h-8.26v-3.73h8.26Zm-16.52,0h-8.26v-3.73h8.26Zm-16.52,0h-8.26v-3.73h8.26Zm-16.52,0h-8.26v-3.73h8.26Zm-16.52,0h-8.26v-3.73h8.26Zm-16.52,0h-8.26v-3.73h8.26Zm-16.52,0h-8.26v-3.73h8.26Zm-16.52,0h-8.26v-3.73h8.26Zm-16.52,0h-8.26v-3.73H1291Zm-16.52,0h-8.26v-3.73h8.26Zm-16.52,0h-8.26v-3.73H1258Zm-16.52,0h-8.26v-3.73h8.26Zm-16.52,0h-8.26v-3.73H1225Zm-16.52,0h-8.26v-3.73h8.26Zm-16.52,0h-8.26v-3.73h8.26Zm-16.52,0h-8.26v-3.73h8.26Zm-16.52,0h-8.26v-3.73h8.26Zm-16.52,0h-8.26v-3.73h8.26Zm-16.52,0h-8.26v-3.73h8.26Zm-16.53,0H1101v-3.73h8.26Zm-11.9-4.61h-3.74v-8.26h3.74Zm790.24-2.15h-3.74v-8.26h3.74ZM1097.4,969.35h-3.74v-8.26h3.74Zm790.24-2.15h-3.74v-8.26h3.74ZM1097.4,952.83h-3.74v-8.26h3.74Zm790.24-2.15h-3.74v-8.26h3.74ZM1097.4,936.31h-3.74v-8.26h3.74Zm790.24-2.15h-3.74V925.9h3.74ZM1097.4,919.79h-3.74v-8.26h3.74Zm790.24-2.15h-3.74v-8.26h3.74ZM1097.4,903.26h-3.74V895h3.74Zm790.24-2.14h-3.74v-8.26h3.74ZM1097.4,886.74h-3.74v-8.26h3.74Zm790.24-2.14h-3.74v-8.26h3.74ZM1097.4,870.22h-3.74V862h3.74Zm790.24-2.14h-3.74v-8.26h3.74ZM1097.4,853.7h-3.74v-8.26h3.74Zm790.24-2.14h-3.74V843.3h3.74ZM1097.4,837.18h-3.74v-8.26h3.74ZM1887.64,835h-3.74v-8.26h3.74ZM1097.4,820.66h-3.74V812.4h3.74Zm790.24-2.15h-3.74v-8.26h3.74ZM1097.4,804.14h-3.74v-8.26h3.74ZM1887.64,802h-3.74v-8.26h3.74ZM1097.4,787.62h-3.74v-8.26h3.74Zm790.24-2.15h-3.74v-8.26h3.74ZM1097.4,771.1h-3.74v-8.26h3.74ZM1887.64,769h-3.74v-8.26h3.74ZM1097.4,754.58h-3.74v-8.26h3.74Zm790.24-2.15h-3.74v-8.26h3.74ZM1097.4,738.06h-3.74V729.8h3.74Zm790.24-2.15h-3.74v-8.26h3.74ZM1097.4,721.54h-3.74v-8.26h3.74Zm790.24-2.15h-3.74v-8.26h3.74ZM1097.4,705h-3.74v-8.26h3.74Zm790.24-2.15h-3.74v-8.26h3.74ZM1097.4,688.5h-3.74v-8.26h3.74Zm790.24-2.15h-3.74v-8.26h3.74ZM1097.4,672h-3.74v-8.26h3.74Zm790.24-2.15h-3.74v-8.26h3.74ZM1097.4,655.46h-3.74V647.2h3.74Zm790.24-2.15h-3.74v-8.26h3.74ZM1097.4,638.94h-3.74v-8.26h3.74Zm790.24-2.15h-3.74v-8.26h3.74ZM1097.4,622.41h-3.74v-8.26h3.74Zm790.24-2.14h-3.74V612h3.74ZM1097.4,605.89h-3.74v-8.26h3.74Zm790.24-2.14h-3.74v-8.26h3.74ZM1097.4,589.37h-3.74v-8.26h3.74Zm790.24-2.14h-3.74V579h3.74ZM1097.4,572.85h-3.74v-8.26h3.74Zm790.24-2.14h-3.74v-8.26h3.74ZM1097.4,556.33h-3.74v-8.26h3.74Zm790.24-2.14h-3.74v-8.27h3.74ZM1097.4,539.81h-3.74v-8.26h3.74Zm790.24-2.15h-3.74V529.4h3.74ZM1097.4,523.29h-3.74V515h3.74Zm790.24-2.15h-3.74v-8.26h3.74ZM1097.4,506.77h-3.74v-8.45h3.55v1.87h.19Zm790.24-2.15h-3.74v-2.56h-2v-3.74h5.7Zm-14-2.56h-8.26v-3.74h8.26Zm-16.52,0h-8.26v-3.74h8.26Zm-16.52,0h-8.26v-3.74h8.26Zm-16.52,0h-8.26v-3.74h8.26Zm-16.52,0h-8.26v-3.74h8.26Zm-16.52,0h-8.26v-3.74h8.26Zm-16.52,0h-8.26v-3.74h8.26Zm-16.52,0h-8.26v-3.74H1758Zm-16.52,0h-8.26v-3.74h8.26Zm-16.52,0h-8.26v-3.74H1725Zm-16.53,0h-8.26v-3.74h8.26Zm-16.52,0h-8.26v-3.74H1692Zm-16.52,0h-8.26v-3.74h8.26Zm-16.52,0h-8.26v-3.74h8.26Zm-16.52,0h-8.26v-3.74h8.26Zm-16.52,0h-8.26v-3.74h8.26Zm-16.52,0h-8.26v-3.74h8.26Zm-16.52,0h-8.26v-3.74h8.26Zm-16.52,0h-8.26v-3.74h8.26Zm-16.52,0h-8.26v-3.74h8.26Zm-16.52,0H1535v-3.74h8.26Zm-16.52,0h-8.26v-3.74h8.26Zm-16.52,0H1502v-3.74h8.26Zm-16.52,0h-8.26v-3.74h8.26Zm-16.52,0h-8.26v-3.74h8.26Zm-16.52,0h-8.26v-3.74h8.26Zm-16.52,0h-8.26v-3.74h8.26Zm-16.52,0h-8.26v-3.74h8.26Zm-16.52,0h-8.27v-3.74h8.27Zm-16.53,0h-8.26v-3.74h8.26Zm-16.52,0h-8.26v-3.74h8.26Zm-16.52,0h-8.26v-3.74h8.26Zm-16.52,0h-8.26v-3.74H1345Zm-16.52,0h-8.26v-3.74h8.26Zm-16.52,0h-8.26v-3.74H1312Zm-16.52,0h-8.26v-3.74h8.26Zm-16.52,0h-8.26v-3.74h8.26Zm-16.52,0h-8.26v-3.74h8.26Zm-16.52,0h-8.26v-3.74h8.26Zm-16.52,0h-8.26v-3.74h8.26Zm-16.52,0h-8.26v-3.74h8.26Zm-16.52,0h-8.26v-3.74h8.26Zm-16.52,0h-8.26v-3.74h8.26Zm-16.52,0H1155v-3.74h8.26Zm-16.52,0h-8.26v-3.74h8.26Zm-16.52,0H1122v-3.74h8.27Zm-16.53,0h-8.26v-3.74h8.26Z"/>
      <rect class="cls-1" x="295.64" y="702.88" width="595.92" height="371.48" rx="15.42"/>
      <g class="cls-6">
        <path class="cls-5" d="M266.89,966.78,425.38,851a89,89,0,0,1,113.25,6.78l116.91,109L721.07,906a60.77,60.77,0,0,1,81.07-1.42l110.66,95.66v101.64H264.31Z"/>
      </g>
      <circle class="cls-5" cx="655.54" cy="809.37" r="43.41" transform="translate(-248.39 1326.8) rotate(-80.78)"/>
      <rect class="cls-5" x="1147.65" y="560.52" width="343" height="24.2" rx="3.58"/>
      <rect class="cls-5" x="1147.65" y="616.2" width="343" height="24.2" rx="3.58"/>
      <rect class="cls-5" x="1147.65" y="671.88" width="343" height="24.2" rx="3.58"/>
      <rect class="cls-5" x="1147.65" y="727.56" width="343" height="24.2" rx="3.58"/>
      <rect class="cls-5" x="1147.65" y="783.25" width="343" height="24.2" rx="3.58"/>
      <rect class="cls-5" x="1147.65" y="838.93" width="343" height="24.2" rx="3.58"/>
      <rect class="cls-5" x="1147.65" y="894.61" width="171.5" height="24.2" rx="2.53"/>
      <rect class="cls-1" x="1549.66" y="558.03" width="284.29" height="387.48" rx="6.6"/>
      <g class="cls-7">
        <polygon class="cls-2" points="1851.38 545.29 1827.4 545.23 1690.43 734.21 1544.24 535.21 1537.46 558.22 1678.67 750.43 1527.48 959.05 1551.46 959.11 1690.77 766.9 1838.88 968.51 1845.65 945.5 1702.53 750.68 1851.38 545.29"/>
      </g>
      <rect class="cls-8" x="571.27" y="304.19" width="1017.55" height="153.54" rx="76.77"/>
    </g>
  </g>
</svg>
